<svg id="visual" viewBox="0 0 900 600" width="900" height="600" xmlns="http://www.w3.org/2000/svg" xmlns:xlink="http://www.w3.org/1999/xlink" version="1.1"><path d="M0 181L82 205L164 157L245 199L327 205L409 187L491 247L573 157L655 241L736 157L818 157L900 121L900 0L818 0L736 0L655 0L573 0L491 0L409 0L327 0L245 0L164 0L82 0L0 0Z" fill="#00cc8e"></path><path d="M0 337L82 307L164 277L245 325L327 325L409 265L491 337L573 229L655 313L736 283L818 205L900 181L900 119L818 155L736 155L655 239L573 155L491 245L409 185L327 203L245 197L164 155L82 203L0 179Z" fill="#00b98a"></path><path d="M0 469L82 439L164 427L245 433L327 445L409 427L491 445L573 487L655 457L736 415L818 397L900 451L900 179L818 203L736 281L655 311L573 227L491 335L409 263L327 323L245 323L164 275L82 305L0 335Z" fill="#00a784"></path><path d="M0 559L82 481L164 517L245 529L327 487L409 493L491 535L573 559L655 541L736 493L818 493L900 529L900 449L818 395L736 413L655 455L573 485L491 443L409 425L327 443L245 431L164 425L82 437L0 467Z" fill="#00957c"></path><path d="M0 601L82 601L164 601L245 601L327 601L409 601L491 601L573 601L655 601L736 601L818 601L900 601L900 527L818 491L736 491L655 539L573 557L491 533L409 491L327 485L245 527L164 515L82 479L0 557Z" fill="#038373"></path></svg>